<svg width="400" height="400" viewBox="0 0 400 400" fill="none" xmlns="http://www.w3.org/2000/svg">
<rect width="400" height="400" rx="200" fill="white"/>
<path d="M88.4811 284.1C91.3638 284.1 93.5415 284.805 95.0141 286.215C96.5181 287.625 97.2701 289.677 97.2701 292.372C97.2701 293.782 96.9255 295.067 96.2361 296.226C95.5781 297.354 94.5911 298.247 93.2751 298.905C91.9905 299.563 90.3768 299.908 88.4341 299.939L88.5281 298.2C89.5621 298.2 90.6745 298.341 91.8651 298.623C93.0871 298.905 94.2308 299.391 95.2961 300.08C96.3615 300.769 97.2388 301.709 97.9281 302.9C98.6175 304.059 98.9621 305.516 98.9621 307.271C98.9621 309.182 98.6488 310.78 98.0221 312.065C97.3955 313.318 96.5651 314.305 95.5311 315.026C94.4971 315.747 93.3535 316.264 92.1001 316.577C90.8781 316.859 89.6718 317 88.4811 317H76.4491C75.7911 317 75.2271 316.781 74.7571 316.342C74.2871 315.872 74.0521 315.292 74.0521 314.603V286.497C74.0521 285.808 74.2871 285.244 74.7571 284.805C75.2271 284.335 75.7911 284.1 76.4491 284.1H88.4811ZM87.8231 288.706H78.5641L79.1281 287.954V298.059L78.6111 297.542H87.9171C89.0451 297.511 90.0321 297.135 90.8781 296.414C91.7555 295.662 92.1941 294.565 92.1941 293.124C92.1941 291.651 91.8025 290.555 91.0191 289.834C90.2358 289.082 89.1705 288.706 87.8231 288.706ZM88.1521 302.148H78.7991L79.1281 301.819V312.911L78.7521 312.488H88.4341C90.0635 312.488 91.3795 312.065 92.3821 311.219C93.3848 310.342 93.8861 309.026 93.8861 307.271C93.8861 305.798 93.5885 304.702 92.9931 303.981C92.3978 303.26 91.6615 302.775 90.7841 302.524C89.9068 302.273 89.0295 302.148 88.1521 302.148ZM122.664 292.09C123.353 292.09 123.917 292.325 124.356 292.795C124.795 293.234 125.014 293.798 125.014 294.487V314.697C125.014 317.454 124.481 319.695 123.416 321.418C122.382 323.141 120.972 324.395 119.186 325.178C117.431 325.993 115.442 326.4 113.217 326.4C112.089 326.4 110.961 326.29 109.833 326.071C108.705 325.883 107.781 325.601 107.06 325.225C106.308 324.88 105.775 324.457 105.462 323.956C105.149 323.455 105.102 322.906 105.321 322.311C105.54 321.559 105.916 321.042 106.449 320.76C106.982 320.509 107.53 320.494 108.094 320.713C108.627 320.932 109.332 321.214 110.209 321.559C111.086 321.904 112.089 322.076 113.217 322.076C114.752 322.076 116.053 321.825 117.118 321.324C118.183 320.823 118.982 320.039 119.515 318.974C120.079 317.909 120.361 316.53 120.361 314.838V311.595L121.113 312.723C120.612 313.757 119.954 314.619 119.139 315.308C118.324 315.997 117.353 316.53 116.225 316.906C115.128 317.282 113.906 317.47 112.559 317.47C110.836 317.47 109.347 317.094 108.094 316.342C106.872 315.559 105.932 314.493 105.274 313.146C104.616 311.767 104.287 310.201 104.287 308.446V294.487C104.287 293.798 104.506 293.234 104.945 292.795C105.384 292.325 105.948 292.09 106.637 292.09C107.295 292.09 107.843 292.325 108.282 292.795C108.752 293.234 108.987 293.798 108.987 294.487V307.177C108.987 309.245 109.441 310.765 110.35 311.736C111.259 312.676 112.606 313.146 114.392 313.146C115.583 313.146 116.617 312.895 117.494 312.394C118.371 311.893 119.061 311.203 119.562 310.326C120.063 309.417 120.314 308.368 120.314 307.177V294.487C120.314 293.798 120.533 293.234 120.972 292.795C121.442 292.325 122.006 292.09 122.664 292.09ZM131.268 292.56H142.313C142.939 292.56 143.456 292.779 143.864 293.218C144.302 293.625 144.522 294.142 144.522 294.769C144.522 295.364 144.302 295.866 143.864 296.273C143.456 296.68 142.939 296.884 142.313 296.884H131.268C130.641 296.884 130.108 296.68 129.67 296.273C129.262 295.834 129.059 295.317 129.059 294.722C129.059 294.095 129.262 293.578 129.67 293.171C130.108 292.764 130.641 292.56 131.268 292.56ZM136.203 286.45C136.892 286.45 137.456 286.685 137.895 287.155C138.333 287.594 138.553 288.158 138.553 288.847V310.655C138.553 311.219 138.647 311.673 138.835 312.018C139.023 312.363 139.273 312.598 139.587 312.723C139.931 312.848 140.276 312.911 140.621 312.911C140.965 312.911 141.263 312.848 141.514 312.723C141.796 312.598 142.125 312.535 142.501 312.535C142.877 312.535 143.221 312.707 143.535 313.052C143.848 313.397 144.005 313.867 144.005 314.462C144.005 315.214 143.597 315.825 142.783 316.295C141.968 316.765 141.091 317 140.151 317C139.618 317 138.991 316.953 138.271 316.859C137.55 316.765 136.845 316.53 136.156 316.154C135.498 315.778 134.949 315.183 134.511 314.368C134.072 313.522 133.853 312.347 133.853 310.843V288.847C133.853 288.158 134.072 287.594 134.511 287.155C134.981 286.685 135.545 286.45 136.203 286.45ZM161.012 317.47C158.411 317.47 156.155 316.937 154.244 315.872C152.333 314.775 150.844 313.287 149.779 311.407C148.745 309.496 148.228 307.318 148.228 304.874C148.228 302.117 148.776 299.767 149.873 297.824C151.001 295.85 152.458 294.346 154.244 293.312C156.03 292.247 157.926 291.714 159.931 291.714C161.466 291.714 162.923 292.027 164.302 292.654C165.681 293.249 166.903 294.095 167.968 295.192C169.065 296.257 169.926 297.526 170.553 298.999C171.18 300.44 171.509 302.023 171.54 303.746C171.509 304.373 171.258 304.89 170.788 305.297C170.318 305.704 169.77 305.908 169.143 305.908H150.86L149.732 301.913H167.404L166.511 302.759V301.584C166.448 300.487 166.088 299.532 165.43 298.717C164.772 297.871 163.957 297.229 162.986 296.79C162.015 296.32 160.996 296.085 159.931 296.085C158.991 296.085 158.082 296.242 157.205 296.555C156.359 296.837 155.591 297.307 154.902 297.965C154.244 298.623 153.711 299.5 153.304 300.597C152.928 301.662 152.74 302.994 152.74 304.592C152.74 306.315 153.1 307.819 153.821 309.104C154.542 310.389 155.513 311.391 156.735 312.112C157.957 312.801 159.304 313.146 160.777 313.146C161.936 313.146 162.892 313.036 163.644 312.817C164.396 312.566 165.023 312.269 165.524 311.924C166.025 311.579 166.464 311.25 166.84 310.937C167.31 310.655 167.78 310.514 168.25 310.514C168.814 310.514 169.284 310.718 169.66 311.125C170.036 311.501 170.224 311.955 170.224 312.488C170.224 313.177 169.879 313.804 169.19 314.368C168.344 315.183 167.169 315.903 165.665 316.53C164.192 317.157 162.641 317.47 161.012 317.47Z" fill="#1E1E1E"/>
<path d="M200.729 285.98C201.418 286.325 201.81 286.857 201.904 287.578C202.029 288.299 201.857 288.957 201.387 289.552C201.042 290.022 200.588 290.288 200.024 290.351C199.491 290.414 198.958 290.304 198.426 290.022C197.517 289.552 196.561 289.176 195.559 288.894C194.556 288.612 193.491 288.471 192.363 288.471C190.577 288.471 188.963 288.769 187.522 289.364C186.112 289.928 184.89 290.758 183.856 291.855C182.822 292.92 182.023 294.189 181.459 295.662C180.926 297.135 180.66 298.764 180.66 300.55C180.66 302.524 180.957 304.279 181.553 305.814C182.148 307.318 182.963 308.603 183.997 309.668C185.062 310.702 186.3 311.485 187.71 312.018C189.151 312.519 190.702 312.77 192.363 312.77C193.428 312.77 194.462 312.645 195.465 312.394C196.499 312.143 197.47 311.767 198.378 311.266C198.943 310.984 199.491 310.89 200.024 310.984C200.588 311.047 201.042 311.313 201.387 311.783C201.919 312.441 202.107 313.115 201.951 313.804C201.825 314.462 201.434 314.963 200.776 315.308C199.992 315.747 199.131 316.123 198.191 316.436C197.251 316.749 196.295 317 195.324 317.188C194.352 317.376 193.365 317.47 192.363 317.47C190.107 317.47 187.976 317.094 185.97 316.342C183.965 315.59 182.179 314.493 180.613 313.052C179.046 311.611 177.808 309.84 176.9 307.741C176.022 305.642 175.584 303.245 175.584 300.55C175.584 298.137 175.991 295.913 176.806 293.876C177.652 291.808 178.827 290.038 180.331 288.565C181.866 287.061 183.652 285.902 185.689 285.087C187.725 284.241 189.95 283.818 192.363 283.818C193.867 283.818 195.324 284.006 196.734 284.382C198.175 284.758 199.507 285.291 200.729 285.98ZM225.156 292.278C225.814 292.278 226.363 292.513 226.801 292.983C227.271 293.422 227.506 293.986 227.506 294.675V307.036C227.506 310.295 226.598 312.848 224.78 314.697C222.963 316.514 220.394 317.423 217.072 317.423C213.782 317.423 211.229 316.514 209.411 314.697C207.625 312.848 206.732 310.295 206.732 307.036V294.675C206.732 293.986 206.952 293.422 207.39 292.983C207.829 292.513 208.393 292.278 209.082 292.278C209.74 292.278 210.289 292.513 210.727 292.983C211.197 293.422 211.432 293.986 211.432 294.675V307.036C211.432 309.073 211.902 310.592 212.842 311.595C213.814 312.598 215.224 313.099 217.072 313.099C218.952 313.099 220.378 312.598 221.349 311.595C222.321 310.592 222.806 309.073 222.806 307.036V294.675C222.806 293.986 223.026 293.422 223.464 292.983C223.903 292.513 224.467 292.278 225.156 292.278ZM238.46 314.603C238.46 315.292 238.241 315.872 237.802 316.342C237.363 316.781 236.799 317 236.11 317C235.452 317 234.888 316.781 234.418 316.342C233.979 315.872 233.76 315.292 233.76 314.603V294.487C233.76 293.798 233.979 293.234 234.418 292.795C234.888 292.325 235.452 292.09 236.11 292.09C236.799 292.09 237.363 292.325 237.802 292.795C238.241 293.234 238.46 293.798 238.46 294.487V314.603ZM236.063 288.988C235.154 288.988 234.496 288.831 234.089 288.518C233.682 288.173 233.478 287.609 233.478 286.826V286.074C233.478 285.291 233.697 284.742 234.136 284.429C234.575 284.116 235.233 283.959 236.11 283.959C237.05 283.959 237.724 284.131 238.131 284.476C238.538 284.789 238.742 285.322 238.742 286.074V286.826C238.742 287.641 238.523 288.205 238.084 288.518C237.677 288.831 237.003 288.988 236.063 288.988ZM243.325 313.146C243.043 312.707 242.918 312.206 242.949 311.642C242.981 311.047 243.31 310.545 243.936 310.138C244.375 309.856 244.829 309.746 245.299 309.809C245.801 309.84 246.271 310.075 246.709 310.514C247.587 311.485 248.558 312.253 249.623 312.817C250.72 313.381 252.036 313.663 253.571 313.663C254.198 313.632 254.84 313.538 255.498 313.381C256.156 313.193 256.72 312.88 257.19 312.441C257.66 311.971 257.895 311.297 257.895 310.42C257.895 309.637 257.645 309.01 257.143 308.54C256.642 308.07 255.984 307.694 255.169 307.412C254.355 307.099 253.477 306.817 252.537 306.566C251.535 306.284 250.516 305.971 249.482 305.626C248.48 305.281 247.571 304.843 246.756 304.31C245.942 303.746 245.268 303.025 244.735 302.148C244.234 301.271 243.983 300.19 243.983 298.905C243.983 297.432 244.391 296.163 245.205 295.098C246.051 294.033 247.132 293.202 248.448 292.607C249.796 292.012 251.253 291.714 252.819 291.714C253.728 291.714 254.684 291.839 255.686 292.09C256.689 292.309 257.66 292.67 258.6 293.171C259.54 293.672 260.355 294.33 261.044 295.145C261.358 295.552 261.53 296.038 261.561 296.602C261.624 297.166 261.373 297.667 260.809 298.106C260.433 298.419 259.979 298.56 259.446 298.529C258.914 298.498 258.475 298.325 258.13 298.012C257.535 297.26 256.767 296.68 255.827 296.273C254.887 295.834 253.822 295.615 252.631 295.615C252.036 295.615 251.409 295.709 250.751 295.897C250.125 296.054 249.592 296.351 249.153 296.79C248.715 297.229 248.495 297.871 248.495 298.717C248.495 299.5 248.746 300.127 249.247 300.597C249.78 301.067 250.469 301.459 251.315 301.772C252.161 302.085 253.086 302.367 254.088 302.618C255.06 302.869 256.015 303.166 256.955 303.511C257.927 303.856 258.788 304.31 259.54 304.874C260.324 305.407 260.95 306.112 261.42 306.989C261.922 307.835 262.172 308.916 262.172 310.232C262.172 311.767 261.718 313.083 260.809 314.18C259.932 315.245 258.804 316.06 257.425 316.624C256.078 317.188 254.652 317.47 253.148 317.47C251.362 317.47 249.576 317.157 247.79 316.53C246.036 315.872 244.547 314.744 243.325 313.146ZM271.645 314.603C271.645 315.292 271.425 315.872 270.987 316.342C270.548 316.781 269.984 317 269.295 317C268.637 317 268.073 316.781 267.603 316.342C267.164 315.872 266.945 315.292 266.945 314.603V294.487C266.945 293.798 267.164 293.234 267.603 292.795C268.073 292.325 268.637 292.09 269.295 292.09C269.984 292.09 270.548 292.325 270.987 292.795C271.425 293.234 271.645 293.798 271.645 294.487V314.603ZM269.248 288.988C268.339 288.988 267.681 288.831 267.274 288.518C266.866 288.173 266.663 287.609 266.663 286.826V286.074C266.663 285.291 266.882 284.742 267.321 284.429C267.759 284.116 268.417 283.959 269.295 283.959C270.235 283.959 270.908 284.131 271.316 284.476C271.723 284.789 271.927 285.322 271.927 286.074V286.826C271.927 287.641 271.707 288.205 271.269 288.518C270.861 288.831 270.188 288.988 269.248 288.988ZM290.704 291.714C292.928 291.714 294.652 292.184 295.874 293.124C297.096 294.033 297.942 295.27 298.412 296.837C298.913 298.372 299.164 300.096 299.164 302.007V314.603C299.164 315.292 298.929 315.872 298.459 316.342C298.02 316.781 297.472 317 296.814 317C296.124 317 295.56 316.781 295.122 316.342C294.683 315.872 294.464 315.292 294.464 314.603V302.054C294.464 300.926 294.307 299.923 293.994 299.046C293.68 298.137 293.132 297.417 292.349 296.884C291.597 296.32 290.531 296.038 289.153 296.038C287.868 296.038 286.74 296.32 285.769 296.884C284.797 297.417 284.03 298.137 283.466 299.046C282.933 299.923 282.667 300.926 282.667 302.054V314.603C282.667 315.292 282.432 315.872 281.962 316.342C281.523 316.781 280.975 317 280.317 317C279.627 317 279.063 316.781 278.625 316.342C278.186 315.872 277.967 315.292 277.967 314.603V294.675C277.967 293.986 278.186 293.422 278.625 292.983C279.063 292.513 279.627 292.278 280.317 292.278C280.975 292.278 281.523 292.513 281.962 292.983C282.432 293.422 282.667 293.986 282.667 294.675V297.307L281.821 297.777C282.04 297.088 282.416 296.398 282.949 295.709C283.513 294.988 284.186 294.33 284.97 293.735C285.753 293.108 286.63 292.623 287.602 292.278C288.573 291.902 289.607 291.714 290.704 291.714ZM317.204 317.47C314.604 317.47 312.348 316.937 310.436 315.872C308.525 314.775 307.037 313.287 305.971 311.407C304.937 309.496 304.42 307.318 304.42 304.874C304.42 302.117 304.969 299.767 306.065 297.824C307.193 295.85 308.65 294.346 310.436 293.312C312.222 292.247 314.118 291.714 316.123 291.714C317.659 291.714 319.116 292.027 320.494 292.654C321.873 293.249 323.095 294.095 324.16 295.192C325.257 296.257 326.119 297.526 326.745 298.999C327.372 300.44 327.701 302.023 327.732 303.746C327.701 304.373 327.45 304.89 326.98 305.297C326.51 305.704 325.962 305.908 325.335 305.908H307.052L305.924 301.913H323.596L322.703 302.759V301.584C322.641 300.487 322.28 299.532 321.622 298.717C320.964 297.871 320.15 297.229 319.178 296.79C318.207 296.32 317.189 296.085 316.123 296.085C315.183 296.085 314.275 296.242 313.397 296.555C312.551 296.837 311.784 297.307 311.094 297.965C310.436 298.623 309.904 299.5 309.496 300.597C309.12 301.662 308.932 302.994 308.932 304.592C308.932 306.315 309.293 307.819 310.013 309.104C310.734 310.389 311.705 311.391 312.927 312.112C314.149 312.801 315.497 313.146 316.969 313.146C318.129 313.146 319.084 313.036 319.836 312.817C320.588 312.566 321.215 312.269 321.716 311.924C322.218 311.579 322.656 311.25 323.032 310.937C323.502 310.655 323.972 310.514 324.442 310.514C325.006 310.514 325.476 310.718 325.852 311.125C326.228 311.501 326.416 311.955 326.416 312.488C326.416 313.177 326.072 313.804 325.382 314.368C324.536 315.183 323.361 315.903 321.857 316.53C320.385 317.157 318.834 317.47 317.204 317.47Z" fill="#5DAB02"/>
<path d="M278.211 205.321L277.212 207.841C276.46 210.185 275.499 212.534 274.329 214.89L272.914 217.784C270.01 223.226 266.565 228.315 262.581 233.054L257.952 237.803L254.551 240.879L252.377 242.707C237.002 254.641 219.664 260.821 200.363 261.249C184.414 261.604 167.691 257.537 153.79 249.032C142.695 242.244 133.279 233.115 126.632 222.205C120.112 211.506 116.276 200.083 115.124 187.937C114.474 181.075 114.573 173.549 115.364 166.348C115.739 162.93 116.029 160.591 116.234 159.331C116.66 156.722 117.957 154.911 120.125 153.899C123.327 152.402 126.57 154.081 127.751 157.266C127.985 157.896 128.1 158.829 128.094 160.063C128.047 170.71 128.028 178.122 128.038 182.3C128.053 188.086 129.096 193.611 130.64 199.189C133.351 209.008 138.165 217.654 145.083 225.129C157.183 238.198 173.29 246.003 191.035 247.743C191.051 247.745 191.068 247.741 191.082 247.734C191.096 247.726 191.108 247.714 191.116 247.699C191.123 247.685 191.126 247.669 191.124 247.652C191.123 247.636 191.116 247.621 191.105 247.608C189.398 245.511 187.72 243.377 186.069 241.207C181.728 235.509 178.086 229.354 175.136 222.832C171.058 213.811 169.055 204.328 169.127 194.385C169.141 192.477 169.204 190.522 169.317 188.522C169.766 180.65 171.418 172.931 174.327 165.595C177.916 156.548 182.554 148.556 187.839 140.121C190.212 136.336 192.246 132.385 193.941 128.268C198.702 116.707 197.891 104.941 194.835 93.0967C193.624 88.4014 192.394 83.7119 191.144 79.0283C189.747 73.7861 188.852 68.6826 188.457 63.7178C188.34 62.2353 188.278 60.2832 188.272 57.8613C188.259 52.3223 188.284 46.7891 188.349 41.2617C188.349 41.2011 188.368 41.1421 188.404 41.0931C188.44 41.0442 188.49 41.0078 188.548 40.9893C188.71 40.9365 188.876 40.9805 189.046 41.1211C205.47 54.8437 220.587 68.9785 234.397 83.5254C239.862 89.2812 245.417 95.8828 251.062 103.33C259.308 114.209 266.152 125.065 271.596 135.899C277.297 147.252 281.07 159.308 282.163 171.905C283.127 182.988 281.489 194.713 278.211 205.321ZM204.187 137.276C202.04 141.677 199.701 145.908 197.17 149.971L193.045 156.894L192.693 157.488C186.676 167.818 182.469 179.388 182.363 191.473C182.109 192.979 182.058 194.608 182.208 196.362C182.51 199.942 182.765 203.323 183.479 206.581C184.55 211.47 186.213 216.177 188.469 220.702L189.846 223.078C191.68 226.76 193.812 230.017 196.244 232.849C196.508 233.155 196.837 233.425 197.231 233.657C197.349 233.728 197.398 233.694 197.381 233.558C196.924 230.091 196.724 226.604 196.78 223.096C196.688 217.615 197.329 212.198 198.702 206.845L200.035 201.741C200.551 200.133 201.049 198.492 201.685 196.969C204.466 190.301 208.01 184.076 212.316 178.295C215.357 174.214 218.984 170.095 222.324 166.028C224.756 163.067 226.979 159.643 228.995 155.754C231.649 150.63 233.094 145.354 233.246 139.585C233.283 138.142 233.398 137.138 233.592 136.573C234.901 132.762 239.354 130.869 242.841 133.321C244.63 134.577 245.537 136.428 245.562 138.873C245.621 144.68 244.783 150.888 242.773 156.401C240.109 163.706 236.051 170.24 230.598 176.004C230.583 176.019 230.575 176.039 230.573 176.06C230.571 176.081 230.576 176.102 230.588 176.119C230.599 176.137 230.616 176.15 230.636 176.157C230.656 176.163 230.677 176.163 230.697 176.156C234.182 174.863 237.417 173.127 240.403 170.947C240.916 171.357 241.552 171.612 241.994 171.929C242.857 172.55 243.654 173.276 244.385 174.108C244.4 174.125 244.411 174.146 244.416 174.168C244.422 174.19 244.422 174.214 244.417 174.236C244.411 174.258 244.4 174.279 244.385 174.296C244.37 174.313 244.351 174.326 244.329 174.334L244.177 174.39C244.028 174.444 244.02 174.518 244.15 174.609C244.395 174.783 244.415 174.949 244.212 175.107C244.168 175.141 244.138 175.191 244.129 175.246C244.12 175.301 244.133 175.357 244.165 175.403C244.444 175.815 244.983 176.525 245.782 177.533C245.925 177.713 246.11 178.141 246.339 178.816C246.444 179.125 246.683 179.214 247.054 179.083C247.058 179.081 247.06 179.078 247.06 179.074C247.056 179.045 247.057 179.019 247.062 178.995C247.07 178.954 247.097 178.934 247.142 178.934C247.417 178.936 247.555 179.032 247.555 179.224C242.732 185.426 235.432 187.31 228.113 191.44C219.785 196.14 214.182 203.07 211.303 212.232C210.164 216.098 209.595 220.069 209.595 224.147C209.659 228.062 210.075 231.966 210.843 235.86C211.435 239.073 212.266 242.254 213.336 245.402C213.371 245.713 213.475 245.997 213.646 246.255C213.707 246.345 213.79 246.381 213.895 246.363C215.626 246.072 217.631 245.592 219.91 244.922C234.131 240.735 247.101 232.315 255.816 220.392C263.832 209.429 268.631 196.257 269.144 182.59C269.422 175.137 268.78 168.665 267.204 161.361C266.845 159.688 266.381 157.994 265.812 156.281C263.782 150.155 260.955 144.319 257.973 138.609C257.508 137.721 257.014 136.86 256.49 136.028L255.966 135.226C252.251 128.235 248.079 121.427 243.301 115.119C241.436 112.654 239.563 110.192 237.685 107.733C233.667 102.495 230.462 98.585 228.069 96.0029C224.592 92.25 221.264 88.3711 217.543 84.8144C216.014 83.3535 214.109 81.5098 211.83 79.2832C210.309 77.7988 208.463 76.1963 206.293 74.4756L202.256 70.5527C202.237 70.5359 202.213 70.5256 202.188 70.5235C202.162 70.5215 202.137 70.5277 202.115 70.5412C202.094 70.5548 202.078 70.5749 202.068 70.5987C202.059 70.6224 202.058 70.6484 202.065 70.6728C204.821 78.8975 206.983 87.2891 208.552 95.8477C209.024 98.4277 209.352 100.353 209.533 101.622C210.764 110.271 210.365 119.186 207.811 127.652C206.752 131.16 205.544 134.368 204.187 137.276Z" fill="#1E1E1E"/>
<path d="M166.578 53.5547C169.353 53.5547 171.603 51.3052 171.603 48.5303C171.603 45.7554 169.353 43.5059 166.578 43.5059C163.803 43.5059 161.554 45.7554 161.554 48.5303C161.554 51.3052 163.803 53.5547 166.578 53.5547Z" fill="#5DAB02"/>
<path d="M150.922 54.7395L139.045 54.8017C137.587 54.8094 136.412 55.9973 136.419 57.4552L136.485 70.0585C136.493 71.5163 137.681 72.6919 139.139 72.6843L151.015 72.6221C152.473 72.6145 153.649 71.4265 153.641 69.9687L153.575 57.3653C153.568 55.9075 152.38 54.7319 150.922 54.7395Z" fill="#5DAB02"/>
<path d="M206.293 74.4756L209.021 77.7832C209.644 78.7988 210.405 79.7002 211.306 80.4873C217.032 87.1729 222 94.4102 226.209 102.199C226.309 102.85 226.833 103.471 226.203 104.063C224.814 105.367 223.318 106.564 221.715 107.654C221.648 107.7 221.597 107.764 221.569 107.84C221.54 107.916 221.536 107.998 221.557 108.076C224.788 120.305 220.449 133.269 213.351 143.244C210.925 146.652 208.354 149.948 205.64 153.132C203.636 155.481 201.939 157.655 200.103 159.932C198.412 162.029 197.108 164.033 195.796 166.242C195.642 166.504 195.475 166.724 195.295 166.901C195.268 166.927 195.236 166.945 195.201 166.955C195.165 166.964 195.128 166.965 195.093 166.956C195.057 166.948 195.025 166.931 194.998 166.906C194.972 166.882 194.952 166.851 194.94 166.816C194.175 164.506 193.55 162.168 193.065 159.803C193.157 159.367 193.284 158.942 193.446 158.528C193.571 158.206 193.64 157.853 193.651 157.468C193.669 156.964 193.767 156.604 193.944 156.387C194.53 155.672 195.112 154.952 195.69 154.228C195.922 153.938 196.285 153.8 196.546 153.489C196.604 153.421 196.676 153.405 196.76 153.442L196.912 153.513C196.998 153.552 197.073 153.538 197.138 153.472C197.565 153.04 198.058 152.7 198.614 152.452C198.737 152.397 198.858 152.313 198.978 152.197C199.259 151.922 199.678 151.729 199.61 151.213C199.597 151.105 199.624 151.011 199.692 150.929C199.95 150.622 200.052 150.258 199.997 149.836C199.991 149.784 200 149.732 200.022 149.685C200.044 149.637 200.079 149.598 200.123 149.569C200.439 149.367 200.419 148.963 200.557 148.72C201.146 147.677 201.828 146.702 202.602 145.796C202.67 145.716 202.714 145.636 202.733 145.556C202.763 145.446 202.777 145.334 202.777 145.219C202.779 145.129 202.81 145.05 202.868 144.981C203.003 144.827 203.033 144.641 202.959 144.422C202.932 144.342 202.931 144.262 202.956 144.182C203.155 143.531 203.601 143.021 203.759 142.406C203.866 141.994 203.973 141.583 204.078 141.173C204.174 140.806 204.193 140.391 204.137 139.928C204.041 139.115 204.058 138.231 204.187 137.276C205.544 134.368 206.752 131.16 207.811 127.652C210.365 119.186 210.764 110.271 209.533 101.622C209.352 100.353 209.024 98.4277 208.552 95.8477C206.983 87.2891 204.821 78.8975 202.065 70.6729C202.058 70.6485 202.059 70.6224 202.068 70.5987C202.078 70.5749 202.094 70.5548 202.115 70.5412C202.137 70.5277 202.162 70.5215 202.188 70.5235C202.213 70.5256 202.237 70.5359 202.256 70.5527L206.293 74.4756Z" fill="#E2FFC1"/>
<path d="M175.949 71.3845L164.001 71.4262C162.584 71.4311 161.439 72.5842 161.444 74.0015L161.488 86.5229C161.493 87.9403 162.646 89.0853 164.063 89.0804L176.01 89.0387C177.428 89.0337 178.573 87.8807 178.568 86.4633L178.524 73.9419C178.519 72.5245 177.366 71.3795 175.949 71.3845Z" fill="#5DAB02"/>
<path d="M206.293 74.4756C208.463 76.1963 210.309 77.7988 211.83 79.2832C214.109 81.5098 216.014 83.3535 217.543 84.8145C221.264 88.3711 224.592 92.25 228.069 96.0029C230.462 98.585 233.667 102.495 237.685 107.733C237.765 109.124 238.049 110.266 238.537 111.158C242.357 118.148 245.397 124.534 247.657 130.315C249.048 133.876 250.021 136.301 250.578 137.59C251.082 138.762 251.417 140.212 251.583 141.94C251.647 142.611 251.785 143.118 252.21 143.566C253.761 145.203 254.963 146.999 255.816 148.954C256.199 149.829 256.612 150.7 257.056 151.567C258.208 154.062 259.202 156.637 260.038 159.293C261.167 162.562 261.858 166.253 262.112 170.364C262.423 175.37 262.219 180.122 261.5 184.62C261.186 186.589 260.722 188.482 260.108 190.301C257.192 198.947 252.115 205.991 244.877 211.433C241.449 214.011 237.551 216.324 233.182 218.373C227.879 218.477 222.749 219.156 217.792 220.412C218.17 219.141 218.492 217.919 219.239 216.817C221.956 212.802 225.381 209.499 229.514 206.909C232.432 205.083 235.382 203.311 238.364 201.592C240.163 200.558 241.824 199.395 243.506 198.246C248.507 194.824 252.289 190.368 254.999 184.934C258.395 178.128 258.491 167.364 254.264 160.887C254.213 160.807 254.141 160.776 254.047 160.796C253.975 160.812 253.94 160.841 253.944 160.884C253.595 158.007 252.876 155.115 251.788 152.209C251.702 151.98 251.647 151.987 251.624 152.229C251.132 157.456 249.118 162.085 245.583 166.116C244.032 167.827 242.306 169.437 240.403 170.947C237.417 173.127 234.182 174.863 230.697 176.156C230.678 176.163 230.656 176.163 230.636 176.157C230.616 176.15 230.599 176.137 230.588 176.119C230.576 176.102 230.571 176.081 230.573 176.06C230.575 176.039 230.583 176.019 230.598 176.004C236.051 170.24 240.109 163.706 242.773 156.401C244.783 150.888 245.621 144.68 245.563 138.873C245.537 136.428 244.63 134.577 242.841 133.321C239.354 130.869 234.901 132.762 233.592 136.573C233.398 137.138 233.283 138.142 233.246 139.585C233.094 145.354 231.649 150.63 228.995 155.754C226.979 159.643 224.756 163.067 222.324 166.028C218.984 170.095 215.357 174.214 212.316 178.295C208.01 184.076 204.466 190.301 201.685 196.969C201.049 198.492 200.551 200.133 200.035 201.741L200.006 201.258C200.002 201.178 199.961 201.146 199.883 201.161L199.736 201.187C199.721 201.191 199.71 201.187 199.704 201.173C199.694 201.144 199.688 201.112 199.687 201.079C199.685 201.054 199.672 201.04 199.648 201.038C199.129 200.999 198.613 201.006 198.102 201.059C198.033 201.066 197.95 201.031 197.853 200.953C197.778 200.893 197.694 200.873 197.601 200.895C197.017 201.025 196.423 201.079 195.819 201.056C195.651 201.05 195.478 201.087 195.298 201.167C195.295 201.168 195.292 201.168 195.289 201.167C195.287 201.166 195.284 201.165 195.282 201.163C195.28 201.16 195.279 201.158 195.279 201.155C195.278 201.152 195.279 201.149 195.28 201.146L195.324 201.079C195.355 201.032 195.343 201.01 195.286 201.012C194.569 201.037 193.848 201.055 193.121 201.064C192.83 201.07 192.611 201.088 192.465 201.117C191.943 201.229 191.557 201.19 191.24 200.704C191.201 200.647 191.171 200.638 191.149 200.675C191.13 200.704 191.11 200.754 191.091 200.824C191.29 190.037 194.656 180.402 201.189 171.92C201.243 171.851 201.273 171.767 201.274 171.68C201.329 169.031 201.688 166.421 202.35 163.849C202.373 163.755 202.434 163.708 202.531 163.708C203.941 163.704 205.351 163.747 206.759 163.837C207.093 163.857 207.263 163.775 207.477 163.547C211.449 159.289 215.23 154.869 218.82 150.287C223.994 143.689 228.008 136.471 229.95 128.335C231.922 120.076 230.829 111.483 227.164 103.849C226.912 103.327 226.484 102.785 226.209 102.199C222 94.4102 217.032 87.1729 211.306 80.4873C210.69 79.4346 209.929 78.5332 209.021 77.7832L206.293 74.4756Z" fill="#51C300"/>
<path d="M118.391 81.6669C118.606 84.4675 121.008 86.5665 123.755 86.3551C126.503 86.1437 128.555 83.702 128.34 80.9014C128.124 78.1008 125.722 76.0018 122.975 76.2132C120.228 76.4246 118.175 78.8663 118.391 81.6669Z" fill="#5DAB02"/>
<path d="M209.021 77.7832C209.929 78.5332 210.69 79.4346 211.306 80.4873C210.405 79.7002 209.644 78.7988 209.021 77.7832Z" fill="#83E43D"/>
<path d="M151.139 88.7345L138.84 88.7989C137.494 88.806 136.409 89.903 136.416 91.2492L136.483 104.145C136.49 105.492 137.587 106.577 138.933 106.57L151.232 106.506C152.578 106.499 153.664 105.402 153.657 104.056L153.589 91.1592C153.582 89.8131 152.485 88.7275 151.139 88.7345Z" fill="#5DAB02"/>
<path d="M118.406 103.936C118.229 106.749 120.302 109.169 123.036 109.341C125.77 109.513 128.13 107.372 128.307 104.559C128.484 101.745 126.411 99.3256 123.677 99.1536C120.943 98.9816 118.583 101.123 118.406 103.936Z" fill="#5DAB02"/>
<path d="M226.209 102.199C226.484 102.785 226.912 103.327 227.164 103.849C230.829 111.483 231.922 120.076 229.95 128.335C228.008 136.471 223.994 143.689 218.82 150.287C215.23 154.869 211.449 159.289 207.477 163.547C207.263 163.775 207.093 163.857 206.759 163.837C205.351 163.747 203.941 163.704 202.531 163.708C202.434 163.708 202.373 163.755 202.35 163.849C201.687 166.421 201.329 169.031 201.274 171.68C201.273 171.767 201.243 171.851 201.189 171.92C194.656 180.402 191.29 190.037 191.091 200.824L191.117 208.181C188.695 205.761 186.664 202.886 185.023 199.556C183.812 197.097 182.941 194.98 182.41 193.207C182.293 192.813 182.277 192.234 182.363 191.473C182.469 179.388 186.676 167.818 192.693 157.488C192.654 158.172 192.778 158.943 193.065 159.803C193.55 162.168 194.175 164.506 194.94 166.816C194.952 166.851 194.972 166.882 194.998 166.906C195.025 166.931 195.057 166.948 195.093 166.956C195.128 166.965 195.165 166.964 195.201 166.955C195.236 166.945 195.268 166.927 195.295 166.901C195.475 166.724 195.642 166.504 195.796 166.242C197.108 164.033 198.412 162.029 200.103 159.932C201.939 157.655 203.636 155.481 205.64 153.132C208.354 149.948 210.925 146.652 213.351 143.244C220.449 133.269 224.788 120.305 221.557 108.076C221.536 107.998 221.54 107.916 221.569 107.84C221.597 107.764 221.648 107.7 221.715 107.654C223.318 106.564 224.814 105.367 226.203 104.063C226.833 103.471 226.309 102.85 226.209 102.199Z" fill="#BEFB85"/>
<path d="M185.163 103.908L173.07 103.93C171.651 103.932 170.502 105.084 170.505 106.503L170.527 119.013C170.529 120.432 171.681 121.58 173.1 121.578L185.194 121.557C186.613 121.554 187.761 120.402 187.759 118.983L187.737 106.473C187.735 105.054 186.582 103.906 185.163 103.908Z" fill="#5DAB02"/>
<path d="M237.685 107.733C239.563 110.192 241.436 112.654 243.301 115.119C248.079 121.427 252.251 128.235 255.966 135.226C256.003 135.886 256.108 136.533 256.282 137.168C256.532 138.084 256.677 138.718 256.716 139.069C256.959 141.299 256.824 143.707 256.862 145.884C256.872 146.448 256.943 147.035 257.076 147.645C257.275 148.559 257.615 149.707 257.079 150.466C257.026 150.542 257.003 150.626 257.009 150.718L257.056 151.567C256.612 150.7 256.199 149.829 255.816 148.954C254.963 146.999 253.761 145.203 252.21 143.566C251.785 143.118 251.647 142.611 251.583 141.94C251.417 140.212 251.082 138.762 250.578 137.59C250.021 136.301 249.048 133.876 247.657 130.315C245.397 124.534 242.357 118.148 238.537 111.158C238.049 110.266 237.765 109.124 237.685 107.733Z" fill="#339900"/>
<path d="M151.654 115.639C151.185 118.413 153.02 121.037 155.753 121.499C158.486 121.961 161.082 120.087 161.551 117.313C162.02 114.538 160.185 111.914 157.452 111.452C154.719 110.99 152.124 112.864 151.654 115.639Z" fill="#5DAB02"/>
<path d="M142.38 122.272L130.157 122.251C128.754 122.249 127.615 123.384 127.613 124.787L127.591 137.285C127.588 138.688 128.723 139.827 130.126 139.829L142.349 139.851C143.752 139.853 144.891 138.718 144.893 137.315L144.915 124.817C144.918 123.414 143.782 122.275 142.38 122.272Z" fill="#5DAB02"/>
<path d="M170.387 135.237L170.354 147.738C170.353 148.422 170.08 149.076 169.596 149.559C169.112 150.041 168.457 150.311 167.773 150.311L155.779 150.299C155.097 150.298 154.442 150.026 153.959 149.544C153.476 149.061 153.205 148.406 153.204 147.724L153.195 135.34C153.195 134.66 153.463 134.007 153.941 133.523C154.42 133.04 155.07 132.765 155.75 132.759L167.785 132.653C168.126 132.65 168.464 132.715 168.78 132.843C169.096 132.972 169.383 133.162 169.625 133.402C169.867 133.642 170.059 133.928 170.19 134.243C170.321 134.558 170.388 134.896 170.387 135.237Z" fill="#5DAB02"/>
<path d="M255.966 135.226L256.49 136.028C256.342 136.292 256.301 136.517 256.367 136.702C256.762 137.819 256.953 138.59 256.941 139.014C256.922 139.703 257.04 140.656 257.296 141.873C257.497 142.828 257.583 144.062 257.554 145.573C257.53 146.702 257.574 147.55 257.686 148.116C257.838 148.896 258.068 149.719 258.377 150.586C258.76 151.66 259.076 152.938 259.326 154.421C259.408 154.916 259.637 155.66 259.648 156.322C259.656 156.77 259.712 157.184 259.815 157.564C259.966 158.119 260.04 158.695 260.038 159.293C259.202 156.637 258.208 154.062 257.056 151.567L257.009 150.718C257.003 150.626 257.026 150.542 257.079 150.466C257.615 149.707 257.275 148.559 257.076 147.645C256.943 147.035 256.872 146.448 256.862 145.884C256.824 143.707 256.959 141.299 256.716 139.069C256.677 138.718 256.532 138.084 256.282 137.168C256.108 136.533 256.003 135.886 255.966 135.226Z" fill="#0E910C"/>
<path d="M256.49 136.028C257.014 136.86 257.508 137.721 257.973 138.609C260.955 144.319 263.782 150.155 265.812 156.281C266.381 157.994 266.845 159.688 267.204 161.361C268.78 168.665 269.422 175.137 269.144 182.59C268.631 196.257 263.832 209.429 255.816 220.392C247.101 232.315 234.131 240.735 219.91 244.922C217.631 245.592 215.626 246.072 213.895 246.363C213.79 246.381 213.707 246.345 213.646 246.255C213.475 245.997 213.371 245.713 213.336 245.402C213.566 245.215 213.677 244.953 213.667 244.617C213.603 242.674 213.814 240.785 214.303 238.951C214.756 237.254 215.437 235.496 216.345 233.678C217.153 232.059 218.139 230.542 219.301 229.128C219.336 229.085 219.589 228.722 220.06 228.038C220.288 227.708 220.587 227.373 220.956 227.033C222.22 225.998 223.505 224.975 224.812 223.963C227.416 221.947 230.305 220.219 233.182 218.373C237.551 216.324 241.449 214.011 244.877 211.433C252.115 205.991 257.192 198.947 260.108 190.301C260.722 188.482 261.186 186.589 261.5 184.62C262.219 180.122 262.423 175.37 262.112 170.364C261.858 166.253 261.167 162.562 260.038 159.293C260.04 158.695 259.966 158.119 259.815 157.564C259.712 157.184 259.656 156.77 259.648 156.322C259.637 155.66 259.408 154.916 259.326 154.421C259.076 152.938 258.76 151.66 258.377 150.586C258.068 149.719 257.838 148.896 257.686 148.116C257.574 147.55 257.53 146.702 257.554 145.573C257.583 144.062 257.497 142.828 257.296 141.873C257.04 140.656 256.922 139.703 256.941 139.014C256.953 138.59 256.762 137.819 256.367 136.702C256.301 136.517 256.342 136.292 256.49 136.028Z" fill="#019121"/>
<path d="M204.187 137.276C204.058 138.231 204.041 139.115 204.137 139.928C204.193 140.391 204.174 140.806 204.078 141.173C203.973 141.583 203.866 141.994 203.759 142.406C203.601 143.021 203.155 143.531 202.956 144.182C202.931 144.262 202.932 144.342 202.959 144.422C203.033 144.641 203.003 144.827 202.868 144.981C202.81 145.05 202.779 145.129 202.777 145.219C202.777 145.334 202.763 145.446 202.733 145.556C202.714 145.636 202.67 145.716 202.602 145.796C201.828 146.702 201.146 147.677 200.557 148.72C200.419 148.963 200.439 149.367 200.123 149.569C200.079 149.598 200.044 149.637 200.022 149.685C200 149.732 199.991 149.784 199.997 149.836C200.052 150.258 199.95 150.622 199.692 150.929C199.624 151.011 199.597 151.105 199.61 151.213C199.678 151.729 199.259 151.922 198.978 152.197C198.858 152.312 198.737 152.397 198.614 152.452C198.058 152.7 197.565 153.04 197.138 153.472C197.073 153.538 196.998 153.552 196.912 153.513L196.76 153.442C196.676 153.405 196.604 153.421 196.546 153.489C196.285 153.8 195.922 153.937 195.69 154.228C195.112 154.952 194.53 155.672 193.944 156.387C193.767 156.604 193.669 156.964 193.651 157.468C193.64 157.853 193.571 158.206 193.446 158.528C193.284 158.942 193.157 159.367 193.065 159.803C192.778 158.943 192.654 158.172 192.693 157.488L193.045 156.894C193.763 156.413 194.094 155.552 194.448 155.065C195.26 153.958 195.696 152.742 196.508 151.652C196.879 151.156 197.1 150.596 197.17 149.971C199.701 145.908 202.04 141.677 204.187 137.276Z" fill="#D5FEBF"/>
<path d="M197.17 149.971C197.1 150.596 196.879 151.156 196.508 151.652C195.696 152.742 195.26 153.958 194.448 155.065C194.094 155.552 193.763 156.413 193.045 156.894L197.17 149.971Z" fill="#A5F8AC"/>
<path d="M253.944 160.884C253.995 164.622 253.367 168.213 252.061 171.656L251.519 172.793L251.322 171.68C251.32 171.669 251.315 171.659 251.308 171.652C251.301 171.644 251.292 171.638 251.281 171.635C251.271 171.632 251.26 171.632 251.25 171.634C251.239 171.637 251.23 171.643 251.223 171.65L251.155 171.715C251.143 171.728 251.127 171.737 251.11 171.743C251.093 171.749 251.075 171.751 251.057 171.749C251.039 171.746 251.022 171.74 251.007 171.73C250.992 171.72 250.98 171.707 250.971 171.691C250.357 170.641 249.61 169.698 248.729 168.864C248.671 168.808 248.601 168.779 248.519 168.779H248.425C248.358 168.779 248.301 168.758 248.252 168.715L246.942 167.558C246.882 167.505 246.851 167.438 246.849 167.358C246.845 167.175 246.771 167.037 246.629 166.945C246.158 166.643 245.81 166.366 245.583 166.116C249.118 162.085 251.132 157.456 251.624 152.229C251.647 151.987 251.702 151.98 251.788 152.209C252.876 155.115 253.595 158.007 253.944 160.884Z" fill="#1E1E1E"/>
<path d="M136.706 157.521C135.994 160.235 137.571 163 140.228 163.697C142.886 164.394 145.617 162.759 146.329 160.046C147.041 157.332 145.464 154.567 142.807 153.869C140.149 153.172 137.418 154.807 136.706 157.521Z" fill="#5DAB02"/>
<path d="M217.792 220.412C214.956 221.306 212.117 222.434 209.829 224.388C209.811 224.402 209.789 224.411 209.767 224.412C209.744 224.414 209.721 224.409 209.701 224.398C209.681 224.386 209.665 224.369 209.655 224.349C209.645 224.328 209.641 224.305 209.645 224.282C209.658 224.198 209.642 224.153 209.595 224.147C209.595 220.069 210.164 216.098 211.303 212.232L211.309 212.455C211.312 212.592 211.383 212.661 211.52 212.663C211.713 212.667 211.847 212.579 211.921 212.399C211.938 212.357 211.965 212.318 211.998 212.286C212.031 212.254 212.071 212.229 212.114 212.212C213.71 211.606 215.458 211.105 217.358 210.709C218.354 210.504 219.33 210.229 220.074 209.405C221.832 207.464 223.255 206.055 224.343 205.178C226.36 203.549 229.725 201.025 234.436 197.607C236.254 196.287 237.805 195.103 239.088 194.054C242.665 191.124 244.678 189.208 247.414 185.619C248.267 184.497 248.826 183.275 249.438 182.021C250.317 180.22 250.766 178.277 251.375 176.332C251.671 175.389 251.718 174.448 251.894 173.47C251.921 173.319 252.021 173.077 252.192 172.743C252.323 172.489 252.381 172.211 252.365 171.908C252.359 171.807 252.312 171.733 252.222 171.688C252.165 171.661 252.111 171.65 252.061 171.656C253.367 168.213 253.995 164.622 253.944 160.884C253.94 160.841 253.975 160.812 254.047 160.796C254.141 160.776 254.213 160.807 254.264 160.887C258.491 167.364 258.395 178.128 254.999 184.934C252.289 190.368 248.507 194.824 243.506 198.246C241.824 199.395 240.163 200.558 238.364 201.592C235.382 203.311 232.432 205.083 229.514 206.909C225.381 209.499 221.956 212.802 219.239 216.817C218.492 217.919 218.17 219.141 217.792 220.412Z" fill="#BDFB86"/>
<path d="M245.583 166.116C245.81 166.366 246.158 166.643 246.629 166.945C246.771 167.037 246.845 167.175 246.849 167.358C246.851 167.438 246.882 167.505 246.942 167.558L248.252 168.715C248.301 168.758 248.358 168.779 248.425 168.779H248.519C248.601 168.779 248.671 168.808 248.73 168.864C249.61 169.698 250.357 170.641 250.971 171.691C250.98 171.707 250.992 171.72 251.007 171.73C251.022 171.74 251.039 171.746 251.057 171.749C251.075 171.751 251.093 171.749 251.11 171.743C251.127 171.737 251.143 171.728 251.155 171.715L251.223 171.65C251.23 171.643 251.239 171.637 251.25 171.634C251.26 171.632 251.271 171.632 251.281 171.635C251.292 171.638 251.301 171.644 251.308 171.652C251.315 171.659 251.32 171.669 251.322 171.68L251.519 172.793C250.589 175.098 249.268 177.241 247.555 179.224C247.555 179.032 247.417 178.936 247.142 178.934C247.097 178.934 247.07 178.954 247.063 178.995C247.057 179.019 247.056 179.045 247.06 179.074C247.06 179.078 247.058 179.081 247.054 179.083C246.683 179.214 246.444 179.125 246.339 178.816C246.11 178.141 245.925 177.713 245.782 177.533C244.983 176.525 244.444 175.815 244.165 175.403C244.133 175.357 244.12 175.301 244.129 175.246C244.138 175.191 244.168 175.141 244.212 175.107C244.415 174.949 244.395 174.783 244.15 174.609C244.02 174.518 244.028 174.444 244.177 174.39L244.329 174.334C244.351 174.326 244.37 174.313 244.385 174.296C244.4 174.279 244.411 174.258 244.417 174.236C244.422 174.214 244.422 174.19 244.416 174.168C244.411 174.146 244.4 174.125 244.385 174.108C243.654 173.276 242.857 172.55 241.994 171.929C241.552 171.612 240.916 171.357 240.403 170.947C242.306 169.437 244.032 167.827 245.583 166.116Z" fill="#1E1E1E"/>
<path d="M158.815 167.747L146.956 167.726C145.48 167.723 144.282 168.918 144.279 170.393L144.258 182.827C144.255 184.302 145.449 185.501 146.925 185.503L158.784 185.524C160.26 185.527 161.458 184.332 161.461 182.857L161.482 170.423C161.485 168.948 160.291 167.749 158.815 167.747Z" fill="#5DAB02"/>
<path d="M252.061 171.656C252.111 171.65 252.165 171.661 252.222 171.688C252.312 171.733 252.359 171.807 252.365 171.908C252.381 172.211 252.323 172.489 252.192 172.743C252.021 173.077 251.921 173.319 251.894 173.47C251.718 174.448 251.671 175.389 251.375 176.332C250.766 178.277 250.317 180.22 249.438 182.021C248.826 183.275 248.267 184.497 247.414 185.619C244.678 189.208 242.665 191.124 239.088 194.054C237.805 195.103 236.254 196.287 234.436 197.607C229.725 201.025 226.36 203.549 224.343 205.178C223.255 206.055 221.832 207.464 220.074 209.405C219.33 210.229 218.354 210.504 217.358 210.709C215.458 211.105 213.71 211.606 212.114 212.212C212.071 212.229 212.031 212.254 211.998 212.286C211.965 212.318 211.938 212.357 211.921 212.399C211.847 212.579 211.713 212.667 211.52 212.663C211.383 212.661 211.312 212.592 211.309 212.455L211.303 212.232C214.182 203.07 219.785 196.14 228.113 191.44C235.432 187.31 242.732 185.426 247.555 179.224C249.268 177.241 250.589 175.098 251.519 172.793L252.061 171.656Z" fill="#E3FFC5"/>
<path d="M182.363 191.473C182.277 192.234 182.293 192.812 182.41 193.207C182.941 194.98 183.812 197.097 185.023 199.556C186.664 202.886 188.695 205.761 191.117 208.181L191.261 207.835C191.292 207.761 191.348 207.715 191.428 207.697C192.824 207.385 194.241 207.27 195.679 207.352C196.53 207.402 197.382 207.379 198.233 207.281C198.325 207.271 198.382 207.221 198.403 207.129C198.437 206.992 198.536 206.897 198.702 206.845C197.329 212.198 196.688 217.615 196.78 223.096C196.755 223.098 196.729 223.101 196.704 223.105L196.689 221.798C196.687 221.708 196.656 221.63 196.596 221.563C196.359 221.3 196.098 221.232 195.811 221.361C195.713 221.406 195.629 221.389 195.559 221.309L195.181 220.89C195.104 220.804 195.01 220.757 194.896 220.749L192.485 220.567C192.444 220.563 192.422 220.541 192.418 220.5C192.416 220.469 192.407 220.441 192.392 220.418C192.354 220.369 192.293 220.346 192.207 220.348C192.107 220.35 192.016 220.367 191.932 220.4C191.852 220.432 191.77 220.444 191.686 220.438C190.959 220.378 190.235 220.383 189.515 220.453C189.405 220.463 189.301 220.445 189.201 220.4C188.826 220.234 188.582 220.335 188.469 220.702C186.213 216.177 184.55 211.47 183.479 206.581C182.765 203.323 182.51 199.942 182.208 196.362C182.058 194.608 182.109 192.979 182.363 191.473Z" fill="#42AD00"/>
<path d="M158.717 197.556L146.799 197.577C145.328 197.579 144.138 198.774 144.141 200.245L144.162 212.567C144.165 214.038 145.359 215.228 146.83 215.225L158.748 215.204C160.219 215.202 161.409 214.007 161.406 212.537L161.385 200.214C161.382 198.744 160.188 197.553 158.717 197.556Z" fill="#5DAB02"/>
<path d="M200.035 201.741L198.702 206.845C198.536 206.897 198.437 206.992 198.403 207.129C198.382 207.221 198.325 207.271 198.233 207.281C197.382 207.379 196.53 207.402 195.679 207.352C194.241 207.27 192.824 207.385 191.428 207.697C191.348 207.715 191.292 207.761 191.261 207.835L191.117 208.181L191.091 200.824C191.11 200.754 191.13 200.704 191.149 200.675C191.171 200.638 191.201 200.647 191.24 200.704C191.557 201.19 191.943 201.229 192.465 201.117C192.611 201.088 192.83 201.07 193.121 201.064C193.848 201.055 194.569 201.037 195.286 201.012C195.343 201.01 195.355 201.032 195.324 201.079L195.28 201.146C195.279 201.149 195.278 201.152 195.279 201.155C195.279 201.158 195.28 201.16 195.282 201.163C195.284 201.165 195.287 201.166 195.289 201.167C195.292 201.168 195.295 201.168 195.298 201.167C195.478 201.087 195.651 201.05 195.819 201.056C196.423 201.079 197.017 201.025 197.601 200.895C197.694 200.873 197.778 200.893 197.853 200.953C197.95 201.031 198.033 201.066 198.102 201.059C198.613 201.006 199.129 200.999 199.648 201.038C199.672 201.04 199.685 201.054 199.687 201.079C199.688 201.112 199.694 201.144 199.704 201.173C199.71 201.187 199.721 201.191 199.736 201.187L199.883 201.161C199.961 201.146 200.002 201.178 200.006 201.258L200.035 201.741Z" fill="#50BC01"/>
<path d="M233.182 218.373C230.305 220.219 227.416 221.947 224.812 223.963C223.505 224.975 222.22 225.998 220.956 227.033C217.489 229.596 214.251 232.389 211.241 235.412C211.19 235.465 211.166 235.527 211.168 235.6C211.168 235.633 211.168 235.666 211.168 235.699C211.164 235.789 211.116 235.838 211.024 235.846L210.843 235.86C210.075 231.966 209.659 228.062 209.595 224.147C209.642 224.153 209.658 224.198 209.645 224.282C209.641 224.305 209.645 224.328 209.655 224.349C209.665 224.369 209.681 224.386 209.701 224.398C209.721 224.409 209.744 224.414 209.767 224.412C209.789 224.411 209.811 224.402 209.829 224.388C212.117 222.434 214.956 221.306 217.792 220.412C222.749 219.156 227.879 218.477 233.182 218.373Z" fill="#40A701"/>
<path d="M196.704 223.105C196.765 223.351 196.704 223.483 196.522 223.503C194.505 223.718 192.279 223.576 189.846 223.078L188.469 220.702C188.582 220.335 188.826 220.234 189.201 220.4C189.301 220.445 189.405 220.463 189.515 220.453C190.235 220.383 190.959 220.378 191.686 220.438C191.77 220.444 191.852 220.432 191.932 220.4C192.016 220.367 192.107 220.35 192.207 220.348C192.293 220.346 192.354 220.369 192.392 220.418C192.407 220.441 192.416 220.469 192.418 220.5C192.422 220.541 192.444 220.563 192.485 220.567L194.896 220.749C195.01 220.757 195.104 220.804 195.181 220.89L195.559 221.309C195.629 221.389 195.713 221.406 195.811 221.361C196.098 221.232 196.359 221.3 196.596 221.564C196.656 221.63 196.687 221.708 196.689 221.798L196.704 223.105Z" fill="#4CB802"/>
<path d="M196.704 223.105C196.729 223.101 196.755 223.098 196.78 223.096C196.724 226.604 196.924 230.091 197.381 233.558C197.398 233.694 197.349 233.728 197.231 233.657C196.837 233.425 196.508 233.155 196.244 232.849C193.812 230.017 191.68 226.76 189.846 223.078C192.279 223.576 194.505 223.718 196.522 223.503C196.704 223.483 196.765 223.351 196.704 223.105Z" fill="#359D02"/>
<path d="M161.144 230.519C160.782 233.303 162.681 235.845 165.384 236.196C168.088 236.547 170.573 234.575 170.934 231.791C171.296 229.007 169.397 226.466 166.694 226.115C163.99 225.763 161.505 227.736 161.144 230.519Z" fill="#5DAB02"/>
<path d="M220.956 227.033C220.587 227.373 220.288 227.708 220.06 228.038C219.589 228.722 219.336 229.085 219.301 229.128C218.139 230.542 217.153 232.059 216.345 233.678C215.437 235.496 214.756 237.254 214.303 238.951C213.814 240.785 213.603 242.674 213.667 244.617C213.677 244.953 213.566 245.215 213.336 245.402C212.266 242.254 211.435 239.073 210.843 235.86L211.024 235.846C211.116 235.838 211.164 235.789 211.168 235.699C211.168 235.666 211.168 235.633 211.168 235.6C211.166 235.527 211.19 235.465 211.241 235.412C214.251 232.389 217.489 229.596 220.956 227.033Z" fill="#2C8900"/>
</svg>
